<svg width="512" height="512" viewBox="0 0 512 512" fill="none" xmlns="http://www.w3.org/2000/svg" role="img" aria-label="WealthVision">
  <defs>
    <linearGradient id="bg" x1="0" y1="0" x2="0" y2="512" gradientUnits="userSpaceOnUse">
      <stop offset="0" stop-color="#16161b"/>
      <stop offset="0.55" stop-color="#0c0c0e"/>
      <stop offset="1" stop-color="#09090b"/>
    </linearGradient>
    <radialGradient id="glow" cx="0" cy="0" r="1" gradientUnits="userSpaceOnUse" gradientTransform="translate(386 166) scale(220)">
      <stop offset="0" stop-color="#22ab94" stop-opacity="0.30"/>
      <stop offset="0.5" stop-color="#22ab94" stop-opacity="0.06"/>
      <stop offset="1" stop-color="#22ab94" stop-opacity="0"/>
    </radialGradient>
    <linearGradient id="area" x1="0" y1="150" x2="0" y2="372" gradientUnits="userSpaceOnUse">
      <stop offset="0" stop-color="#2dc8b0" stop-opacity="0.34"/>
      <stop offset="0.62" stop-color="#22ab94" stop-opacity="0.10"/>
      <stop offset="1" stop-color="#22ab94" stop-opacity="0"/>
    </linearGradient>
    <linearGradient id="line" x1="107" y1="360" x2="400" y2="156" gradientUnits="userSpaceOnUse">
      <stop offset="0" stop-color="#189f86"/>
      <stop offset="0.45" stop-color="#22ab94"/>
      <stop offset="1" stop-color="#3ad9bf"/>
    </linearGradient>
  </defs>
  <rect width="512" height="512" rx="114" fill="url(#bg)"/>
  <rect width="512" height="512" rx="114" fill="url(#glow)"/>
  <g stroke="#ffffff" stroke-width="1.5" stroke-linecap="round">
    <line x1="103" y1="371" x2="409" y2="371" stroke-opacity="0.07"/>
    <line x1="103" y1="306" x2="409" y2="306" stroke-opacity="0.035"/>
    <line x1="103" y1="241" x2="409" y2="241" stroke-opacity="0.035"/>
  </g>
  <path d="M107 360 C 202 353 252 324 290 271 C 331 213 350 181 396 152 L 396 371 L 107 371 Z" fill="url(#area)"/>
  <path d="M107 360 C 202 353 252 324 290 271 C 331 213 350 181 396 152" fill="none" stroke="url(#line)" stroke-width="15" stroke-linecap="round" stroke-linejoin="round"/>
  <circle cx="396" cy="152" r="20" fill="#3ad9bf"/>
  <circle cx="396" cy="152" r="34" fill="none" stroke="#22ab94" stroke-opacity="0.35" stroke-width="3"/>
</svg>
